<?xml version="1.0" standalone="no"?>
<!DOCTYPE svg PUBLIC "-//W3C//DTD SVG 20010904//EN"
 "http://www.w3.org/TR/2001/REC-SVG-20010904/DTD/svg10.dtd">
<svg version="1.0" xmlns="http://www.w3.org/2000/svg"
 width="600.000000pt" height="187.000000pt" viewBox="0 0 600.000000 187.000000"
 preserveAspectRatio="xMidYMid meet">

<g transform="translate(0.000000,187.000000) scale(0.100000,-0.100000)"
fill="#000000" stroke="none">
<path d="M0 1329 c0 -297 4 -538 8 -535 4 2 8 -10 8 -29 0 -19 -3 -32 -7 -29
-4 2 -8 -162 -9 -366 l0 -370 2635 0 c1449 0 2635 3 2635 8 0 4 -22 34 -49 67
-27 33 -69 84 -93 114 -30 37 -57 59 -88 71 -41 16 -45 21 -45 51 0 43 -53
110 -181 229 -51 47 -92 88 -93 92 0 3 -17 34 -35 67 -26 45 -31 61 -20 61 8
0 17 -7 20 -15 4 -8 13 -15 22 -15 8 0 12 -3 9 -6 -12 -12 35 -64 94 -105 32
-22 59 -37 59 -33 0 4 -15 25 -34 48 -18 23 -45 67 -59 98 -15 32 -31 58 -36
58 -5 0 -9 9 -8 19 1 15 4 17 14 9 9 -7 18 -7 31 3 15 13 16 12 3 -4 -13 -16
-10 -22 20 -55 19 -20 37 -41 40 -46 4 -4 32 26 63 67 31 41 65 77 76 80 20 5
102 -44 83 -50 -6 -2 -9 -13 -6 -24 4 -13 11 -18 23 -14 10 3 36 -2 59 -11 22
-9 45 -14 51 -12 9 3 -30 72 -65 116 -1 2 -14 5 -28 7 -14 3 -55 23 -92 46
-37 22 -69 38 -72 36 -2 -3 -14 4 -25 15 -16 16 -18 22 -7 29 8 4 16 4 19 -2
6 -8 150 -73 193 -86 33 -10 16 12 -36 46 -28 19 -54 34 -57 34 -3 0 -16 8
-29 18 -13 11 -30 19 -38 19 -9 0 -13 6 -9 15 3 8 2 14 -2 14 -20 -3 -33 2
-27 11 9 14 -8 12 -24 -3 -11 -10 -12 -8 -3 9 6 11 18 27 27 34 14 12 14 15
-2 34 -17 20 -17 20 0 7 16 -12 20 -12 35 3 14 14 15 19 3 39 -13 20 -13 21 2
8 14 -11 20 -11 34 0 9 8 14 9 10 3 -4 -6 2 -19 12 -28 18 -16 20 -15 51 24
26 33 30 43 20 55 -18 22 -35 18 -54 -10 l-16 -25 -21 21 c-19 19 -22 19 -38
5 -15 -14 -18 -13 -30 7 -13 20 -13 21 3 8 15 -13 20 -12 39 10 12 14 18 19
13 12 -6 -9 -3 -18 10 -28 25 -19 27 -19 42 6 10 16 10 24 1 35 -6 8 -15 14
-20 14 -5 0 -18 9 -30 21 -20 20 -21 20 -41 2 -21 -18 -21 -18 -7 4 7 12 10
26 5 30 -4 4 -11 1 -16 -7 -5 -8 -38 -53 -74 -99 -36 -46 -63 -88 -60 -93 3
-5 13 -3 23 6 15 14 18 13 30 -7 13 -20 13 -21 -3 -8 -12 10 -20 11 -28 3 -6
-6 -16 -8 -22 -6 -7 3 -20 -4 -30 -15 -17 -19 -17 -21 -2 -27 9 -3 13 -11 10
-16 -4 -6 -10 -5 -14 3 -7 10 -11 10 -24 0 -17 -14 -22 -41 -8 -41 4 0 13 5
19 11 8 8 13 7 18 -2 5 -7 4 -10 -2 -6 -6 4 -17 0 -24 -9 -10 -12 -10 -20 0
-35 11 -18 10 -19 -8 -10 -14 8 -22 8 -26 0 -4 -6 -13 -8 -21 -5 -8 3 -18 0
-24 -7 -52 -61 -59 -72 -50 -81 6 -6 14 -4 22 7 12 16 14 16 27 -5 13 -20 12
-22 -1 -11 -12 11 -18 9 -32 -6 -10 -11 -15 -25 -10 -32 4 -8 3 -10 -5 -5 -6
4 -9 16 -6 27 10 29 -6 23 -42 -18 -35 -41 -40 -58 -21 -67 7 -3 3 -3 -9 0
-16 3 -25 -1 -34 -18 -9 -16 -9 -23 0 -26 6 -2 11 -8 11 -14 0 -7 -5 -6 -14 1
-12 10 -22 2 -55 -42 -23 -30 -41 -58 -41 -63 0 -5 23 -25 51 -44 28 -19 56
-39 62 -45 46 -38 139 -105 146 -105 5 0 15 9 22 21 14 20 16 19 79 -38 36
-32 82 -71 102 -86 53 -39 63 -62 43 -93 -8 -13 -23 -24 -33 -24 -16 0 -382
266 -407 295 -5 7 -38 33 -72 59 -35 26 -63 53 -63 59 0 15 27 54 64 92 16 17
47 55 69 85 23 30 113 152 201 272 89 119 179 245 201 280 25 40 46 63 57 62
19 -2 54 -26 338 -236 110 -81 204 -156 209 -166 10 -19 6 -27 -43 -96 -14
-20 -16 -29 -7 -40 19 -23 130 -72 288 -127 81 -28 183 -69 226 -90 l77 -38 0
614 0 615 -3000 0 -3000 0 0 -541z m1770 516 c0 -8 -4 -15 -10 -15 -5 0 -10 7
-10 15 0 8 5 15 10 15 6 0 10 -7 10 -15z m40 -128 c0 6 9 11 20 10 15 -1 19
-6 15 -22 -5 -15 -2 -14 9 5 9 14 15 19 16 11 0 -10 3 -11 14 -2 11 9 13 6 9
-16 -3 -24 -2 -25 6 -8 8 17 10 17 10 3 1 -26 -19 -32 -35 -12 -14 18 -14 18
-7 0 4 -13 3 -17 -5 -12 -7 4 -12 2 -12 -5 0 -7 -7 -4 -15 7 -15 19 -15 19 -9
-1 5 -17 2 -16 -15 5 l-20 25 5 -25 c5 -22 4 -23 -6 -7 -6 9 -8 27 -5 39 6 16
9 18 16 7 6 -9 9 -10 9 -2z m-260 -37 c0 -13 5 -18 15 -14 9 4 15 0 15 -10 0
-11 -9 -16 -26 -16 -22 0 -25 4 -21 20 4 17 2 20 -14 15 -13 -4 -19 -2 -19 9
0 10 9 16 25 16 18 0 25 -5 25 -20z m1050 10 c0 -5 -4 -10 -10 -10 -5 0 -10 5
-10 10 0 6 5 10 10 10 6 0 10 -4 10 -10z m-410 -16 c0 -11 -5 -14 -16 -10 -9
3 -20 6 -25 6 -5 0 -9 5 -9 10 0 6 11 10 25 10 16 0 25 -6 25 -16z m2588 -36
c88 -122 136 -192 125 -185 -6 4 -44 54 -85 112 -40 58 -78 105 -84 105 -6 0
-22 -16 -35 -35 -28 -42 -271 -369 -376 -507 -87 -115 -93 -127 -64 -135 11
-3 21 -9 21 -14 0 -14 -26 -10 -40 6 -10 12 -24 -2 -87 -86 -41 -55 -72 -104
-68 -107 10 -10 75 -5 90 8 11 9 18 7 35 -10 25 -25 18 -40 -9 -23 -25 16 -61
5 -61 -18 0 -27 -50 -26 -57 1 -7 27 -16 25 -47 -12 -31 -37 -32 -45 -8 -51
16 -4 16 -5 -1 -6 -27 -2 -31 25 -8 58 12 16 21 33 21 38 0 4 -5 1 -10 -7 -13
-20 -46 0 -43 26 3 30 -16 56 -36 49 -24 -7 -37 35 -16 51 20 15 19 44 -1 59
-23 17 -9 59 17 52 22 -6 42 23 33 48 -4 10 1 22 12 30 16 12 21 12 30 0 15
-19 54 -8 54 16 0 27 50 26 57 0 6 -24 39 -33 53 -15 19 22 52 -5 45 -36 -4
-15 -3 -21 3 -15 8 9 165 221 380 515 73 99 107 140 119 140 1 0 20 -24 41
-52z m-1928 32 c0 -5 -2 -10 -4 -10 -3 0 -8 5 -11 10 -3 6 -1 10 4 10 6 0 11
-4 11 -10z m290 -6 c0 -8 -4 -12 -10 -9 -5 3 -10 10 -10 16 0 5 5 9 10 9 6 0
10 -7 10 -16z m-1620 -14 c0 -5 -2 -10 -4 -10 -3 0 -8 5 -11 10 -3 6 -1 10 4
10 6 0 11 -4 11 -10z m640 -6 c0 -8 -10 -14 -25 -14 -15 0 -25 6 -25 14 0 8
10 14 25 14 15 0 25 -6 25 -14z m30 2 c0 -3 -4 -8 -10 -11 -5 -3 -10 -1 -10 4
0 6 5 11 10 11 6 0 10 -2 10 -4z m680 -6 c0 -5 -4 -10 -10 -10 -5 0 -10 5 -10
10 0 6 5 10 10 10 6 0 10 -4 10 -10z m35 0 c-3 -5 -11 -10 -16 -10 -6 0 -7 5
-4 10 3 6 11 10 16 10 6 0 7 -4 4 -10z m75 2 c0 -4 -13 -9 -30 -10 -16 -1 -30
2 -30 8 0 5 14 10 30 10 17 0 30 -4 30 -8z m110 -4 c0 -11 -89 -7 -96 3 -2 4
18 7 46 6 27 0 50 -5 50 -9z m-1870 -18 c0 -5 -4 -10 -10 -10 -5 0 -10 5 -10
10 0 6 5 10 10 10 6 0 10 -4 10 -10z m30 0 c0 -5 -4 -10 -10 -10 -5 0 -10 5
-10 10 0 6 5 10 10 10 6 0 10 -4 10 -10z m1146 -17 c-10 -10 -19 5 -10 18 6
11 8 11 12 0 2 -7 1 -15 -2 -18z m30 0 c-10 -10 -19 5 -10 18 6 11 8 11 12 0
2 -7 1 -15 -2 -18z m30 0 c-10 -10 -19 5 -10 18 6 11 8 11 12 0 2 -7 1 -15 -2
-18z m34 7 c0 -5 -4 -10 -10 -10 -5 0 -10 5 -10 10 0 6 5 10 10 10 6 0 10 -4
10 -10z m830 -5 c0 -8 -4 -15 -10 -15 -5 0 -10 7 -10 15 0 8 5 15 10 15 6 0
10 -7 10 -15z m-1684 -32 c-10 -10 -19 5 -10 18 6 11 8 11 12 0 2 -7 1 -15 -2
-18z m34 12 c0 -8 -4 -15 -10 -15 -5 0 -10 7 -10 15 0 8 5 15 10 15 6 0 10 -7
10 -15z m30 -6 c0 -5 -4 -9 -10 -9 -5 0 -10 7 -10 16 0 8 5 12 10 9 6 -3 10
-10 10 -16z m30 0 c0 -5 -4 -9 -10 -9 -5 0 -10 7 -10 16 0 8 5 12 10 9 6 -3
10 -10 10 -16z m1413 1 c-3 -11 -9 -17 -15 -14 -5 3 -4 12 3 20 16 19 18 18
12 -6z m-1163 -6 c0 -8 -5 -12 -10 -9 -6 4 -8 11 -5 16 9 14 15 11 15 -7z m30
0 c0 -8 -4 -12 -10 -9 -5 3 -10 10 -10 16 0 5 5 9 10 9 6 0 10 -7 10 -16z m30
1 c0 -8 -4 -15 -10 -15 -5 0 -10 7 -10 15 0 8 5 15 10 15 6 0 10 -7 10 -15z
m30 -6 c0 -5 -4 -9 -10 -9 -5 0 -10 7 -10 16 0 8 5 12 10 9 6 -3 10 -10 10
-16z m810 -19 l0 -30 -66 0 c-57 0 -65 2 -62 18 2 9 10 16 16 15 7 -2 12 2 12
7 0 6 5 10 10 10 6 0 10 -7 10 -15 0 -21 23 -19 40 5 21 30 40 25 40 -10z
m130 20 c0 -5 9 -10 20 -10 11 0 20 -7 20 -15 0 -10 -6 -12 -17 -8 -32 12 -55
43 -33 43 6 0 10 -4 10 -10z m290 0 c0 -5 -4 -10 -10 -10 -5 0 -10 5 -10 10 0
6 5 10 10 10 6 0 10 -4 10 -10z m-2210 -20 c0 -5 -4 -10 -10 -10 -5 0 -10 5
-10 10 0 6 5 10 10 10 6 0 10 -4 10 -10z m70 -20 c0 -16 -5 -30 -10 -30 -6 0
-10 8 -8 18 2 13 -3 16 -19 14 -16 -2 -23 2 -23 12 0 11 9 16 30 16 27 0 30
-3 30 -30z m291 -22 c6 -11 8 -22 5 -26 -3 -3 -6 1 -6 9 0 12 -2 11 -10 -1 -9
-13 -11 -13 -20 0 -6 10 -10 11 -10 3 0 -7 -5 -13 -11 -13 -5 0 -7 5 -4 10 3
6 -1 10 -9 10 -8 0 -18 4 -21 10 -4 6 1 7 11 3 11 -4 15 -3 11 4 -4 6 -1 13 5
16 22 7 48 -4 59 -25z m3354 22 c4 -6 10 -8 15 -5 4 3 20 -11 35 -30 31 -41
28 -59 -17 -107 -17 -18 -42 -48 -55 -65 -14 -18 -30 -30 -36 -26 -5 3 -8 2
-4 -3 3 -5 -1 -18 -8 -28 -13 -17 -14 -17 -13 5 1 13 25 56 53 94 68 92 73
114 35 140 -30 20 -39 35 -21 35 6 0 13 -5 16 -10z m-2692 -7 c-7 -2 -19 -2
-25 0 -7 3 -2 5 12 5 14 0 19 -2 13 -5z m97 3 c0 -2 -9 -6 -20 -9 -11 -3 -20
-1 -20 4 0 5 9 9 20 9 11 0 20 -2 20 -4z m193 -3 c-7 -2 -19 -2 -25 0 -7 3 -2
5 12 5 14 0 19 -2 13 -5z m627 -3 c0 -5 -9 -10 -20 -10 -11 0 -20 5 -20 10 0
6 9 10 20 10 11 0 20 -4 20 -10z m-1445 -20 c22 -9 22 -9 -15 -16 -30 -6 -53
3 -45 16 7 12 32 12 60 0z m1041 -4 c-2 -6 -8 -10 -14 -9 -6 2 -9 -4 -6 -11 4
-9 0 -14 -10 -12 -39 6 -32 42 8 42 15 0 25 -5 22 -10z m20 -3 c-5 -15 -4 -15
9 1 15 19 15 19 15 -2 0 -15 -5 -20 -20 -17 -11 2 -20 -1 -20 -7 0 -6 -3 -9
-6 -6 -3 3 1 15 8 27 16 26 22 27 14 4z m-906 -15 c0 -16 -3 -19 -11 -11 -6 6
-8 16 -5 22 11 17 16 13 16 -11z m40 0 c0 -16 -3 -19 -11 -11 -6 6 -8 16 -5
22 11 17 16 13 16 -11z m40 0 c0 -16 -3 -19 -11 -11 -6 6 -8 16 -5 22 11 17
16 13 16 -11z m40 0 c0 -16 -3 -19 -11 -11 -6 6 -8 16 -5 22 11 17 16 13 16
-11z m1005 12 c-3 -5 -10 -10 -16 -10 -5 0 -9 5 -9 10 0 6 7 10 16 10 8 0 12
-4 9 -10z m205 0 c0 -5 -4 -10 -9 -10 -6 0 -13 5 -16 10 -3 6 1 10 9 10 9 0
16 -4 16 -10z m180 2 c0 -4 -9 -8 -20 -9 -11 -1 -20 2 -20 8 0 5 9 9 20 9 11
0 20 -4 20 -8z m50 -2 c0 -5 -2 -10 -4 -10 -3 0 -8 5 -11 10 -3 6 -1 10 4 10
6 0 11 -4 11 -10z m-2646 -27 c11 -28 -4 -43 -32 -32 -15 6 -29 10 -32 10 -3
-1 -5 5 -5 12 0 6 5 12 12 12 6 0 14 3 17 6 11 10 35 6 40 -8z m2812 -2 c-3
-4 -20 -5 -38 -2 l-33 5 30 6 c32 7 48 3 41 -9z m-2757 -10 c8 -15 5 -17 -17
-17 -19 0 -28 5 -28 16 0 22 34 23 45 1z m621 9 c0 -5 -7 -10 -15 -10 -8 0
-15 5 -15 10 0 6 7 10 15 10 8 0 15 -4 15 -10z m300 0 c0 -5 -4 -10 -10 -10
-5 0 -10 -6 -10 -14 0 -10 -9 -14 -27 -13 -39 3 -42 27 -4 27 17 0 31 5 31 10
0 6 5 10 10 10 6 0 10 -4 10 -10z m1250 0 c0 -5 -4 -10 -10 -10 -5 0 -10 5
-10 10 0 6 5 10 10 10 6 0 10 -4 10 -10z m50 0 c0 -5 -4 -10 -10 -10 -5 0 -10
5 -10 10 0 6 5 10 10 10 6 0 10 -4 10 -10z m160 6 c0 -8 -61 -12 -66 -4 -3 4
11 8 30 8 20 0 36 -2 36 -4z m73 -3 c-7 -2 -21 -2 -30 0 -10 3 -4 5 12 5 17 0
24 -2 18 -5z m195 0 c-10 -2 -26 -2 -35 0 -10 3 -2 5 17 5 19 0 27 -2 18 -5z
m210 -11 c2 -7 -7 -12 -22 -12 -15 0 -26 6 -26 13 0 17 42 15 48 -1z m432 -1
c5 -11 10 -22 10 -25 0 -12 -31 -6 -57 11 -23 16 -24 17 -7 24 31 12 43 10 54
-10z m-2460 -11 c0 -5 -4 -10 -10 -10 -5 0 -10 5 -10 10 0 6 5 10 10 10 6 0
10 -4 10 -10z m2020 -22 c0 -4 -6 -8 -12 -9 -7 0 -23 -2 -35 -5 -16 -3 -23 1
-23 11 0 12 9 15 35 13 19 -1 35 -6 35 -10z m-1600 -8 c0 -5 -4 -10 -10 -10
-5 0 -10 5 -10 10 0 6 5 10 10 10 6 0 10 -4 10 -10z m1000 0 c0 -5 -4 -10 -10
-10 -5 0 -10 5 -10 10 0 6 5 10 10 10 6 0 10 -4 10 -10z m205 0 c3 -5 -1 -10
-10 -10 -9 0 -13 5 -10 10 3 6 8 10 10 10 2 0 7 -4 10 -10z m-1555 -10 c0 -5
-7 -10 -16 -10 -8 0 -12 5 -9 10 3 6 10 10 16 10 5 0 9 -4 9 -10z m890 0 c0
-5 -4 -10 -10 -10 -5 0 -10 5 -10 10 0 6 5 10 10 10 6 0 10 -4 10 -10z m-2083
-6 c-3 -3 -12 -4 -19 -1 -8 3 -5 6 6 6 11 1 17 -2 13 -5z m240 0 c-3 -3 -12
-4 -19 -1 -8 3 -5 6 6 6 11 1 17 -2 13 -5z m687 -15 c-3 -5 -10 -7 -15 -3 -5
3 -7 10 -3 15 3 5 10 7 15 3 5 -3 7 -10 3 -15z m220 0 c-3 -5 -10 -7 -15 -3
-5 3 -7 10 -3 15 3 5 10 7 15 3 5 -3 7 -10 3 -15z m356 11 c0 -6 -52 -10 -135
-10 -83 0 -135 4 -135 10 0 6 52 10 135 10 83 0 135 -4 135 -10z m1940 -8 c0
-12 -3 -12 -15 -2 -11 9 -15 9 -15 1 0 -7 -5 -9 -10 -6 -15 10 -2 24 20 22 11
-1 20 -8 20 -15z m30 8 c0 -5 -5 -10 -11 -10 -5 0 -7 5 -4 10 3 6 8 10 11 10
2 0 4 -4 4 -10z m-900 -22 c0 -10 -20 -12 -75 -10 -97 5 -98 22 0 22 53 0 75
-4 75 -12z m85 -8 c4 -6 -5 -10 -19 -10 -14 0 -26 5 -26 10 0 6 9 10 19 10 11
0 23 -4 26 -10z m65 2 c0 -5 -7 -9 -15 -9 -8 0 -15 4 -15 9 0 4 7 8 15 8 8 0
15 -4 15 -8z m920 -15 c0 -9 -12 -14 -30 -15 -20 0 -30 4 -30 14 0 9 11 14 30
14 18 0 30 -5 30 -13z m25 4 c3 -5 1 -12 -5 -16 -5 -3 -10 1 -10 9 0 18 6 21
15 7z m-819 -37 c-2 -13 -7 -23 -12 -22 -5 2 -8 9 -6 16 2 7 -1 12 -5 11 -16
-3 -24 1 -19 9 2 4 13 8 24 9 16 1 20 -4 18 -23z m-3090 1 c-8 -8 -18 -15 -22
-15 -3 0 -1 7 6 15 7 8 17 15 22 15 5 0 3 -7 -6 -15z m2678 -15 c-6 -6 -10 -3
-10 10 0 13 4 16 10 10 7 -7 7 -13 0 -20z m-459 0 c77 -6 147 -11 155 -13 11
-2 14 -20 11 -99 l-3 -96 55 -79 c48 -69 54 -83 51 -117 -6 -52 -19 -73 -57
-96 -64 -39 -137 -17 -173 51 -22 43 -13 75 45 158 l51 75 0 83 0 84 -122 -6
c-68 -3 -133 -8 -145 -11 l-23 -4 0 -285 0 -285 60 0 c53 0 62 -3 71 -23 6
-13 20 -27 32 -32 15 -7 23 -21 25 -42 l3 -33 -211 0 -211 0 3 33 c2 22 10 35
26 42 12 5 22 13 22 17 0 22 36 38 86 38 l54 0 0 280 c0 256 -1 280 -17 288
-10 5 -75 12 -145 16 l-128 6 0 -81 0 -81 54 -77 c51 -74 53 -79 46 -123 -8
-53 -21 -73 -61 -94 -40 -20 -92 -17 -123 7 -31 24 -56 69 -56 99 0 12 -4 18
-10 15 -5 -3 -10 -1 -10 4 0 6 6 11 13 11 6 0 36 36 66 80 l54 79 -5 99 -5
100 136 7 c144 8 170 11 180 20 3 4 19 4 36 1 16 -4 93 -11 170 -16z m1635 10
c0 -5 -7 -10 -15 -10 -8 0 -15 5 -15 10 0 6 7 10 15 10 8 0 15 -4 15 -10z
m-1010 -4 c0 -11 -19 -15 -25 -6 -3 5 1 10 9 10 9 0 16 -2 16 -4z m1880 -26
c-27 -39 -34 -39 -12 0 9 16 21 30 25 30 5 0 -1 -13 -13 -30z m-3194 8 c4 -7
3 -8 -4 -4 -7 4 -12 1 -12 -9 0 -9 -5 -13 -10 -10 -8 5 -7 11 1 21 14 17 16
17 25 2z m1984 -8 c0 -13 5 -18 15 -14 9 4 15 0 15 -10 0 -11 -9 -16 -26 -16
-19 0 -25 4 -20 15 4 10 -1 15 -14 15 -11 0 -20 7 -20 15 0 9 9 15 25 15 18 0
25 -5 25 -20z m-2445 0 c3 -5 1 -10 -4 -10 -6 0 -11 5 -11 10 0 6 2 10 4 10 3
0 8 -4 11 -10z m1671 -7 c-5 -15 -4 -15 9 1 8 11 15 15 15 8 0 -6 9 -9 20 -7
15 3 20 -2 20 -17 0 -21 0 -21 -14 -2 -13 17 -15 17 -21 2 -6 -16 -28 -19 -41
-5 -7 7 2 37 12 37 3 0 3 -8 0 -17z m174 7 c0 -5 -2 -10 -4 -10 -3 0 -8 5 -11
10 -3 6 -1 10 4 10 6 0 11 -4 11 -10z m-2442 -21 c-2 -6 -8 -10 -13 -10 -5 0
-11 4 -13 10 -2 6 4 11 13 11 9 0 15 -5 13 -11z m2087 -8 c3 -5 1 -12 -5 -16
-5 -3 -10 1 -10 9 0 18 6 21 15 7z m925 -1 c0 -5 -4 -10 -10 -10 -5 0 -10 5
-10 10 0 6 5 10 10 10 6 0 10 -4 10 -10z m-2764 -35 c0 -33 -1 -34 -17 -19
-15 13 -16 20 -6 35 17 27 22 24 23 -16z m24 16 c-6 -12 -6 -22 -1 -25 5 -3
12 5 15 19 4 14 11 25 17 25 6 0 6 -6 0 -19 -6 -10 -7 -21 -4 -25 4 -4 12 6
18 21 l12 28 0 -31 c0 -27 -4 -32 -24 -29 -12 1 -23 -3 -23 -9 0 -5 -7 -3 -16
6 -17 16 -12 58 7 58 6 0 6 -7 -1 -19z m87 -11 c0 -16 -4 -27 -9 -24 -10 6
-11 38 -1 47 9 10 10 10 10 -23z m30 -6 c1 -18 -2 -23 -9 -16 -6 6 -8 18 -5
26 9 22 12 20 14 -10z m703 6 c0 -5 -4 -10 -10 -10 -5 0 -10 5 -10 10 0 6 5
10 10 10 6 0 10 -4 10 -10z m1620 0 c0 -5 -5 -10 -11 -10 -5 0 -7 5 -4 10 3 6
8 10 11 10 2 0 4 -4 4 -10z m30 0 c0 -5 -4 -10 -10 -10 -5 0 -10 5 -10 10 0 6
5 10 10 10 6 0 10 -4 10 -10z m30 0 c0 -5 -4 -10 -10 -10 -5 0 -10 5 -10 10 0
6 5 10 10 10 6 0 10 -4 10 -10z m30 0 c0 -5 -4 -10 -10 -10 -5 0 -10 5 -10 10
0 6 5 10 10 10 6 0 10 -4 10 -10z m1431 -7 c13 -16 12 -17 -3 -4 -15 11 -21
11 -35 0 -16 -13 -17 -12 -4 4 7 9 17 17 21 17 4 0 14 -8 21 -17z m-4411 -9
c0 -2 -26 -3 -57 -2 l-58 1 45 6 c42 6 70 4 70 -5z m180 9 c0 -7 -28 -33 -35
-33 -3 0 -3 5 0 11 4 6 1 10 -6 8 -25 -3 -40 1 -35 9 5 8 76 13 76 5z m2360
-3 c0 -5 -4 -10 -10 -10 -5 0 -10 5 -10 10 0 6 5 10 10 10 6 0 10 -4 10 -10z
m1920 6 c0 -2 -8 -10 -17 -17 -16 -13 -17 -12 -4 4 13 16 21 21 21 13z m-4377
-13 c-7 -2 -21 -2 -30 0 -10 3 -4 5 12 5 17 0 24 -2 18 -5z m3697 -14 c0 -18
-2 -20 -15 -9 -13 11 -13 15 -3 21 18 12 18 12 18 -12z m50 0 c0 -18 -2 -19
-15 -9 -15 12 -12 30 6 30 5 0 9 -10 9 -21z m36 -6 c-10 -10 -19 5 -10 18 6
11 8 11 12 0 2 -7 1 -15 -2 -18z m-496 -4 c0 -5 -4 -9 -10 -9 -5 0 -10 7 -10
16 0 8 5 12 10 9 6 -3 10 -10 10 -16z m30 0 c0 -5 -4 -9 -10 -9 -5 0 -10 7
-10 16 0 8 5 12 10 9 6 -3 10 -10 10 -16z m-1095 -248 c0 -143 -4 -263 -8
-267 -4 -4 -7 113 -7 259 0 147 3 267 8 267 4 0 7 -117 7 -259z m1035 249 c0
-5 -4 -10 -10 -10 -5 0 -10 5 -10 10 0 6 5 10 10 10 6 0 10 -4 10 -10z m-2692
-11 c-2 -6 -8 -10 -13 -10 -5 0 -11 4 -13 10 -2 6 4 11 13 11 9 0 15 -5 13
-11z m3761 -19 c-19 -25 -20 -31 -8 -46 13 -16 12 -16 -8 -4 -23 15 -23 16 16
63 23 28 23 19 0 -13z m-3179 5 c0 -8 -4 -15 -10 -15 -5 0 -10 7 -10 15 0 8 5
15 10 15 6 0 10 -7 10 -15z m1010 5 c0 -5 -4 -10 -10 -10 -5 0 -10 5 -10 10 0
6 5 10 10 10 6 0 10 -4 10 -10z m-940 -14 c0 -3 -4 -8 -10 -11 -5 -3 -10 -1
-10 4 0 6 5 11 10 11 6 0 10 -2 10 -4z m-214 -18 c4 -7 7 -100 7 -207 -1 -150
-4 -196 -15 -202 -21 -14 -312 -11 -326 3 -13 13 -18 399 -5 411 12 13 331 8
339 -5z m3078 0 c-3 -4 -9 -8 -15 -8 -5 0 -9 4 -9 8 0 5 7 9 15 9 8 0 12 -4 9
-9z m159 -2 c4 -10 1 -13 -8 -9 -8 3 -12 9 -9 14 7 12 11 11 17 -5z m-1633
-32 c33 -30 40 -42 39 -73 -1 -31 -2 -33 -8 -11 -6 20 -13 25 -41 25 -33 0
-35 2 -38 38 l-3 37 -100 0 -100 0 2 -185 1 -185 139 0 138 0 4 33 c4 31 4 31
5 -5 l2 -38 -155 0 -155 0 0 193 c0 107 3 197 7 200 3 4 55 7 115 7 l108 0 40
-36z m536 1 c55 -32 81 -93 65 -150 -9 -34 -7 -42 19 -81 39 -56 38 -65 -2
-53 -18 5 -34 9 -35 9 -2 0 -3 -10 -3 -22 -1 -52 -17 -53 -51 -5 -28 40 -38
47 -66 47 -29 0 -34 -5 -54 -50 -25 -57 -37 -63 -45 -20 -7 33 -11 35 -50 20
-15 -6 -29 -9 -31 -6 -2 2 9 30 25 62 25 50 29 67 24 113 -6 70 15 113 72 141
54 26 80 25 132 -5z m-2815 -11 c37 -18 89 -81 89 -106 0 -17 2 -18 15 -8 21
17 19 -3 -2 -29 l-18 -21 -25 21 c-24 20 -24 20 -2 14 15 -4 22 -2 22 8 0 21
-41 77 -73 101 -21 15 -43 21 -82 21 -60 0 -96 -20 -130 -73 -11 -17 -23 -31
-27 -32 -18 0 -6 23 30 61 60 65 131 80 203 43z m818 -24 c0 -28 -4 -50 -10
-50 -6 0 -9 21 -8 50 2 28 6 50 9 50 4 0 8 -22 9 -50z m3129 25 c-3 -3 -9 2
-12 12 -6 14 -5 15 5 6 7 -7 10 -15 7 -18z m-4223 -4 c3 -5 1 -12 -5 -16 -5
-3 -10 1 -10 9 0 18 6 21 15 7z m55 -12 c0 -4 -9 -7 -20 -6 -11 1 -20 7 -20
13 0 7 8 10 20 7 11 -3 20 -9 20 -14z m30 0 c0 -5 -4 -9 -10 -9 -5 0 -10 7
-10 16 0 8 5 12 10 9 6 -3 10 -10 10 -16z m-110 7 c0 -3 -4 -8 -10 -11 -5 -3
-10 -1 -10 4 0 6 5 11 10 11 6 0 10 -2 10 -4z m247 -8 c4 -7 9 -26 10 -43 0
-16 3 -39 5 -50 2 -17 -3 -21 -34 -23 -40 -3 -48 10 -29 47 6 10 6 23 1 31
-19 31 27 68 47 38z m2221 -5 c-21 -2 -55 -2 -75 0 -21 2 -4 4 37 4 41 0 58
-2 38 -4z m1822 -18 c5 3 10 2 10 -2 0 -5 -10 -14 -22 -22 -13 -7 -20 -10 -15
-6 4 5 0 17 -10 27 -15 16 -18 17 -33 3 -15 -14 -18 -14 -23 -1 -4 10 -1 13 7
10 8 -3 17 -1 21 5 4 7 14 6 30 -5 13 -9 29 -13 35 -9z m-4371 -97 c12 -62 21
-123 21 -134 0 -23 -23 -34 -72 -34 -26 0 -27 3 -45 102 l-18 102 -5 -105 -5
-104 -50 0 -50 0 0 135 0 135 63 1 c35 1 66 5 69 8 4 3 21 6 39 6 l32 0 21
-112z m-459 92 c0 -5 -4 -10 -10 -10 -5 0 -10 5 -10 10 0 6 5 10 10 10 6 0 10
-4 10 -10z m25 0 c3 -5 1 -10 -4 -10 -6 0 -11 5 -11 10 0 6 2 10 4 10 3 0 8
-4 11 -10z m35 1 c0 -6 -4 -13 -10 -16 -5 -3 -10 1 -10 9 0 9 5 16 10 16 6 0
10 -4 10 -9z m25 0 c3 -5 1 -12 -5 -16 -5 -3 -10 1 -10 9 0 18 6 21 15 7z
m135 -130 l0 -141 -45 0 c-34 0 -47 4 -52 18 -4 9 -11 21 -17 25 -8 6 -7 10 2
14 8 3 12 34 12 104 0 64 -4 98 -10 94 -5 -3 -10 0 -10 8 0 10 16 14 60 16
l60 2 0 -140z m2820 119 c0 -6 -30 -10 -69 -10 -39 0 -73 5 -76 10 -4 6 22 10
69 10 44 0 76 -4 76 -10z m1458 -24 c-10 -7 -15 -16 -11 -20 4 -4 -1 -4 -11 0
-15 6 -17 4 -11 -6 6 -9 4 -11 -5 -5 -10 6 -10 11 3 20 9 7 14 15 10 19 -4 4
0 4 10 0 11 -4 17 -1 17 7 0 7 3 9 7 5 5 -4 0 -13 -9 -20z m248 2 c4 -6 3 -8
-3 -5 -6 4 -13 0 -17 -8 -3 -8 -11 -15 -17 -15 -7 0 -5 8 6 20 21 23 22 24 31
8z m-3086 -38 c0 -16 -4 -30 -10 -30 -5 0 -10 14 -10 30 0 17 5 30 10 30 6 0
10 -13 10 -30z m1408 23 c-32 -2 -84 -2 -115 0 -32 2 -6 3 57 3 63 0 89 -1 58
-3z m1768 -58 c0 -13 -3 -21 -5 -19 -2 2 -12 -3 -22 -12 -15 -14 -18 -13 -30
15 -11 24 -15 27 -24 15 -9 -13 -13 -13 -30 1 -19 15 -19 16 -1 11 10 -4 24
-2 31 4 13 11 29 -3 30 -24 0 -19 21 -15 34 6 12 19 11 23 -5 35 -10 7 -24 11
-31 9 -7 -3 -13 -1 -13 3 0 5 6 11 13 14 19 7 55 -32 53 -58z m-2166 45 c0 -5
-4 -10 -10 -10 -5 0 -10 5 -10 10 0 6 5 10 10 10 6 0 10 -4 10 -10z m532 -19
c48 -24 59 -88 22 -126 -13 -13 -12 -19 11 -54 28 -45 30 -51 15 -51 -5 0 -19
18 -30 39 l-20 39 -152 -2 c-134 -3 -139 -3 -39 3 112 6 113 6 92 25 -44 40
-17 125 44 138 24 5 23 5 57 -11z m-1477 -1 c3 -5 1 -10 -4 -10 -6 0 -11 5
-11 10 0 6 2 10 4 10 3 0 8 -4 11 -10z m1318 3 c-29 -2 -77 -2 -105 0 -29 2
-6 3 52 3 58 0 81 -1 53 -3z m1637 -25 c0 -6 -6 -5 -15 2 -8 7 -15 14 -15 16
0 2 7 1 15 -2 8 -4 15 -11 15 -16z m-3949 -14 c10 -12 10 -20 1 -34 -7 -12 -8
-21 -2 -25 6 -3 10 -17 10 -31 0 -21 -5 -24 -34 -24 -42 0 -49 8 -32 41 8 17
9 29 2 41 -11 18 7 48 29 48 7 0 18 -7 26 -16z m2339 6 c0 -6 -35 -10 -84 -10
-47 0 -88 5 -91 10 -4 6 27 10 84 10 54 0 91 -4 91 -10z m-2435 -12 c14 -6 25
-15 25 -20 0 -12 -14 -10 -28 4 -20 20 -15 -23 8 -60 60 -99 212 -97 272 4 25
42 36 38 13 -5 -54 -105 -202 -122 -278 -32 -15 18 -30 43 -33 57 -6 25 -23
33 -25 12 0 -10 -2 -10 -5 -1 -5 11 12 53 21 53 2 0 16 -5 30 -12z m225 -3
c10 -12 10 -18 0 -30 -10 -12 -10 -19 -2 -27 7 -7 12 -20 12 -30 0 -14 -8 -18
-41 -18 -38 0 -41 2 -34 23 4 12 7 33 7 47 -1 14 1 31 3 38 6 17 40 15 55 -3z
m800 -55 c0 -27 -4 -50 -9 -50 -4 0 -8 23 -8 50 0 28 4 50 8 50 5 0 9 -22 9
-50z m1400 40 c0 -6 -33 -10 -80 -10 -47 0 -80 4 -80 10 0 6 33 10 80 10 47 0
80 -4 80 -10z m1820 -5 c0 -1 -6 -7 -13 -13 -10 -8 -13 -6 -13 7 0 11 6 17 13
14 7 -3 13 -6 13 -8z m-242 -15 c-7 -10 -14 -18 -15 -16 -6 6 9 36 18 36 5 0
4 -9 -3 -20z m-1583 -10 c4 -6 -23 -10 -74 -10 -47 0 -81 4 -81 10 0 6 31 10
74 10 41 0 78 -4 81 -10z m1189 -29 c-3 -3 -15 6 -27 18 l-22 24 27 -19 c14
-10 24 -21 22 -23z m546 35 c0 -2 -8 -10 -17 -17 -16 -13 -17 -12 -4 4 13 16
21 21 21 13z m50 -30 c-7 -7 -13 -7 -20 0 -6 6 -3 10 10 10 13 0 16 -4 10 -10z
m-230 0 c0 -3 -4 -8 -10 -11 -5 -3 -10 -1 -10 4 0 6 5 11 10 11 6 0 10 -2 10
-4z m-1577 -13 c-23 -2 -64 -2 -90 0 -26 2 -7 3 42 3 50 0 71 -1 48 -3z m1297
-48 c0 -8 -4 -15 -10 -15 -5 0 -10 7 -10 15 0 8 5 15 10 15 6 0 10 -7 10 -15z
m320 6 c0 -5 -7 -12 -16 -15 -14 -5 -15 -4 -4 9 14 17 20 19 20 6z m-4647 -12
c-6 -6 -9 -19 -6 -28 4 -12 3 -13 -6 -5 -13 12 -5 44 12 44 8 0 8 -3 0 -11z
m1657 -29 c0 -16 -4 -30 -10 -30 -5 0 -10 14 -10 30 0 17 5 30 10 30 6 0 10
-13 10 -30z m1450 20 c-20 -13 -207 -13 -215 0 -4 6 36 10 112 10 80 0 113 -3
103 -10z m-440 -10 c0 -5 -4 -10 -10 -10 -5 0 -10 5 -10 10 0 6 5 10 10 10 6
0 10 -4 10 -10z m-945 -20 c3 -5 1 -10 -4 -10 -6 0 -11 5 -11 10 0 6 2 10 4
10 3 0 8 -4 11 -10z m-1185 -30 c0 -5 -4 -10 -10 -10 -5 0 -10 5 -10 10 0 6 5
10 10 10 6 0 10 -4 10 -10z m354 -11 c-3 -5 -10 -7 -15 -3 -5 3 -7 10 -3 15 3
5 10 7 15 3 5 -3 7 -10 3 -15z m96 11 c0 -5 -4 -10 -10 -10 -5 0 -10 5 -10 10
0 6 5 10 10 10 6 0 10 -4 10 -10z m2477 -27 c-3 -3 -11 -2 -17 2 -8 5 -7 11 2
22 12 15 13 14 16 -1 2 -10 1 -20 -1 -23z m40 0 c-3 -3 -11 -2 -17 2 -8 5 -7
11 2 22 12 15 13 14 16 -1 2 -10 1 -20 -1 -23z m43 12 c0 -8 -4 -15 -9 -15
-13 0 -22 16 -14 24 11 11 23 6 23 -9z m30 -1 c0 -8 -5 -12 -10 -9 -6 4 -8 11
-5 16 9 14 15 11 15 -7z m-2074 -26 c-9 -12 -16 -17 -16 -10 0 7 -4 10 -10 7
-5 -3 -10 1 -10 9 0 9 7 13 20 11 11 -2 20 1 20 7 0 6 3 9 6 5 3 -3 -1 -16
-10 -29z m59 7 c0 -14 -8 -19 -28 -20 -16 -1 -26 3 -24 9 3 6 9 10 15 9 6 -2
9 4 6 11 -4 10 1 14 13 12 10 -2 18 -11 18 -21z m95 -10 c0 -14 -4 -25 -10
-25 -5 0 -10 11 -10 25 0 14 5 25 10 25 6 0 10 -11 10 -25z m-880 11 c0 -3 -4
-8 -10 -11 -5 -3 -10 -1 -10 4 0 6 5 11 10 11 6 0 10 -2 10 -4z m70 0 c0 -11
-19 -15 -25 -6 -3 5 1 10 9 10 9 0 16 -2 16 -4z m75 -5 c3 -5 1 -12 -5 -16 -5
-3 -10 1 -10 9 0 18 6 21 15 7z m310 -10 c-2 -5 -17 -6 -32 -3 l-28 6 25 6
c27 7 43 3 35 -9z m3532 -157 c-3 -3 -30 8 -61 25 -41 24 -60 43 -75 74 -12
24 -21 48 -21 54 0 7 37 -24 82 -68 45 -43 79 -82 75 -85z m-4767 146 c0 -5
-5 -10 -11 -10 -5 0 -7 5 -4 10 3 6 8 10 11 10 2 0 4 -4 4 -10z m30 0 c0 -5
-5 -10 -11 -10 -5 0 -7 5 -4 10 3 6 8 10 11 10 2 0 4 -4 4 -10z m95 0 c3 -5 1
-10 -4 -10 -6 0 -11 5 -11 10 0 6 2 10 4 10 3 0 8 -4 11 -10z m30 0 c3 -5 1
-10 -4 -10 -6 0 -11 5 -11 10 0 6 2 10 4 10 3 0 8 -4 11 -10z m35 0 c0 -5 -4
-10 -10 -10 -5 0 -10 5 -10 10 0 6 5 10 10 10 6 0 10 -4 10 -10z m30 0 c0 -5
-5 -10 -11 -10 -5 0 -7 5 -4 10 3 6 8 10 11 10 2 0 4 -4 4 -10z m30 0 c0 -5
-5 -10 -11 -10 -5 0 -7 5 -4 10 3 6 8 10 11 10 2 0 4 -4 4 -10z m125 0 c3 -5
1 -10 -4 -10 -6 0 -11 5 -11 10 0 6 2 10 4 10 3 0 8 -4 11 -10z m35 0 c0 -5
-4 -10 -10 -10 -5 0 -10 5 -10 10 0 6 5 10 10 10 6 0 10 -4 10 -10z m3827 -6
c-3 -3 -12 -4 -19 -1 -8 3 -5 6 6 6 11 1 17 -2 13 -5z m-3267 -14 c0 -5 -4
-10 -10 -10 -5 0 -10 5 -10 10 0 6 5 10 10 10 6 0 10 -4 10 -10z m70 -6 c0
-11 -6 -15 -19 -11 -14 3 -17 0 -14 -14 4 -13 0 -19 -11 -19 -11 0 -16 9 -16
30 0 27 3 30 30 30 21 0 30 -5 30 -16z m-70 -35 c0 -5 -4 -9 -10 -9 -5 0 -10
7 -10 16 0 8 5 12 10 9 6 -3 10 -10 10 -16z m3090 6 c0 -8 -7 -15 -15 -15 -16
0 -20 12 -8 23 11 12 23 8 23 -8z m-2562 -31 c-3 -16 -14 -19 -76 -20 -63 -2
-72 0 -72 16 0 23 47 35 84 20 38 -14 46 -13 46 7 0 12 3 14 11 6 6 -6 9 -19
7 -29z m2522 26 c0 -5 -2 -10 -4 -10 -3 0 -8 5 -11 10 -3 6 -1 10 4 10 6 0 11
-4 11 -10z m-3878 -15 c0 -5 -5 -11 -11 -13 -6 -2 -11 4 -11 13 0 9 5 15 11
13 6 -2 11 -8 11 -13z m752 -6 c-3 -5 -10 -7 -15 -3 -5 3 -7 10 -3 15 3 5 10
7 15 3 5 -3 7 -10 3 -15z m2066 -54 c0 -72 1 -74 19 -59 10 9 47 29 81 44 34
15 66 34 71 41 5 8 9 11 9 7 0 -4 12 4 27 18 14 13 28 22 31 20 6 -7 -32 -55
-44 -56 -6 0 -21 -9 -34 -20 -13 -12 -29 -18 -36 -16 -8 3 -11 -1 -7 -11 5
-12 1 -14 -15 -8 -13 4 -22 2 -22 -4 0 -6 -7 -11 -15 -11 -7 0 -18 -6 -22 -14
-4 -7 -17 -18 -29 -24 -19 -10 -20 -8 -22 31 -1 23 -5 63 -8 90 -4 31 -2 47 5
47 7 0 11 -27 11 -75z m1250 60 c0 -10 -10 -15 -30 -15 -20 0 -30 5 -30 15 0
10 10 15 30 15 20 0 30 -5 30 -15z m30 6 c0 -6 -4 -13 -10 -16 -5 -3 -10 1
-10 9 0 9 5 16 10 16 6 0 10 -4 10 -9z m-3024 -27 c10 2 28 0 39 -5 14 -5 4
-8 -32 -8 -43 -1 -53 2 -53 15 0 13 3 14 13 5 8 -6 22 -9 33 -7z m2844 6 c0
-5 -7 -10 -15 -10 -8 0 -15 5 -15 10 0 6 7 10 15 10 8 0 15 -4 15 -10z m-2976
-12 c-3 -4 -16 -8 -30 -8 -13 0 -24 4 -24 8 0 5 13 9 30 9 16 0 27 -4 24 -9z
m76 4 c0 -4 -13 -9 -30 -10 -16 -1 -30 1 -30 5 0 5 14 9 30 10 17 1 30 -1 30
-5z m3010 -17 c0 -8 -4 -15 -10 -15 -5 0 -10 7 -10 15 0 8 5 15 10 15 6 0 10
-7 10 -15z m-3590 -50 c0 -9 -9 -15 -25 -15 -29 0 -34 16 -7 23 30 8 32 7 32
-8z m200 -10 c0 -20 -5 -25 -25 -25 -23 0 -27 10 -16 48 1 1 10 2 21 2 15 0
20 -7 20 -25z m55 -5 c0 -38 -39 -35 -43 3 -3 25 0 28 20 25 17 -2 23 -9 23
-28z m620 21 c8 -14 -10 -22 -30 -15 -13 5 -14 8 -3 15 17 11 26 11 33 0z
m1835 -6 c0 -8 -4 -15 -9 -15 -13 0 -22 16 -14 24 11 11 23 6 23 -9z m37 -12
c-3 -3 -11 -2 -17 2 -9 6 -9 10 1 16 14 8 27 -7 16 -18z m53 12 c0 -8 -4 -15
-9 -15 -13 0 -22 16 -14 24 11 11 23 6 23 -9z m40 0 c0 -8 -4 -15 -9 -15 -13
0 -22 16 -14 24 11 11 23 6 23 -9z m97 1 c-3 -6 -9 -10 -15 -9 -7 2 -9 -4 -5
-15 6 -15 5 -15 -10 -3 -12 9 -14 17 -7 26 12 15 42 16 37 1z m46 -6 c-3 -11
0 -10 11 4 14 18 15 18 13 -2 0 -11 -5 -18 -9 -16 -4 3 -8 -1 -8 -8 -1 -7 -7
-2 -16 12 l-15 25 7 -25 c6 -22 5 -23 -10 -11 -13 11 -16 11 -16 1 0 -8 -3
-11 -6 -8 -3 3 0 15 7 26 15 24 49 26 42 2z m-2843 -10 c0 -13 -7 -20 -20 -20
-13 0 -20 7 -20 20 0 13 7 20 20 20 13 0 20 -7 20 -20z m1720 -4 c0 -6 5 -4
10 4 8 12 10 12 10 1 0 -10 3 -11 14 -2 12 10 14 9 10 -7 -4 -13 -14 -18 -37
-17 -18 0 -38 4 -44 8 -9 6 -11 3 -7 -10 5 -17 5 -17 -6 0 -6 9 -9 21 -6 25 7
12 56 10 56 -2z m-1442 -21 c0 -13 -7 -22 -17 -22 -21 0 -32 18 -21 32 16 19
38 13 38 -10z m35 12 c23 14 35 10 35 -12 0 -23 -12 -26 -35 -12 -8 5 -13 3
-13 -5 0 -10 -2 -10 -9 1 -5 8 -6 21 -3 30 4 10 7 11 10 3 2 -7 9 -9 15 -5z
m-483 -11 c0 -8 -10 -13 -25 -13 -15 0 -25 5 -25 13 0 8 10 14 25 14 15 0 25
-6 25 -14z m30 4 c0 -5 -4 -10 -10 -10 -5 0 -10 5 -10 10 0 6 5 10 10 10 6 0
10 -4 10 -10z m507 -5 c0 -8 -4 -12 -9 -9 -5 3 -6 10 -3 15 9 13 12 11 12 -6z
m74 -8 c-13 -13 -26 -3 -16 12 3 6 11 8 17 5 6 -4 6 -10 -1 -17z m354 14 c8
-14 -9 -21 -35 -14 -22 6 -23 7 -4 14 26 10 32 10 39 0z m575 -11 c9 -17 8
-20 -10 -20 -13 0 -20 7 -20 20 0 11 4 20 10 20 5 0 14 -9 20 -20z m68 -2 c-2
-15 -11 -24 -25 -26 -19 -3 -23 1 -23 22 0 21 5 26 26 26 21 0 25 -4 22 -22z
m1754 15 c-40 -2 -103 -2 -140 0 -37 2 -4 3 73 3 77 0 107 -2 67 -3z m-2679
-10 c-7 -2 -21 -2 -30 0 -10 3 -4 5 12 5 17 0 24 -2 18 -5z m120 0 c-7 -2 -19
-2 -25 0 -7 3 -2 5 12 5 14 0 19 -2 13 -5z m2327 -1 c0 -13 -12 -22 -22 -16
-10 6 -1 24 13 24 5 0 9 -4 9 -8z m-2980 -33 c0 -5 -7 -9 -15 -9 -15 0 -20 12
-9 23 8 8 24 -1 24 -14z m138 -1 c-2 -15 -11 -24 -25 -26 -19 -3 -23 1 -23 22
0 21 5 26 26 26 21 0 25 -4 22 -22z m554 15 c-40 -2 -103 -2 -140 0 -37 2 -4
3 73 3 77 0 107 -2 67 -3z m-875 -63 c0 -26 -2 -29 -14 -17 -8 7 -11 21 -7 30
10 27 21 20 21 -13z m30 0 c0 -26 -2 -29 -14 -17 -8 7 -11 21 -7 30 10 27 21
20 21 -13z m29 -1 c1 -27 0 -29 -14 -15 -13 12 -13 18 -2 30 16 20 15 21 16
-15z m31 1 c0 -26 -2 -29 -14 -17 -8 7 -11 21 -7 30 10 27 21 20 21 -13z
m1540 -2 c-3 -7 -5 -2 -5 12 0 14 2 19 5 13 2 -7 2 -19 0 -25z m-1207 -28 c0
-5 -4 -10 -10 -10 -5 0 -10 5 -10 10 0 6 5 10 10 10 6 0 10 -4 10 -10z m1963
-7 c-5 -12 -2 -15 9 -10 20 7 33 -22 18 -37 -8 -8 -9 -6 -5 7 4 10 2 17 -4 17
-6 0 -11 -6 -11 -12 0 -9 -4 -8 -10 2 -9 13 -11 13 -20 0 -6 -10 -10 -11 -10
-2 0 6 -6 12 -13 12 -7 0 -13 8 -13 18 0 12 9 18 33 19 27 3 31 0 26 -14z
m-1393 -13 c0 -5 -4 -10 -10 -10 -5 0 -10 5 -10 10 0 6 5 10 10 10 6 0 10 -4
10 -10z m2030 -25 c0 -19 -4 -35 -10 -35 -5 0 -10 16 -10 35 0 19 5 35 10 35
6 0 10 -16 10 -35z m-1280 15 c0 -5 -4 -10 -10 -10 -5 0 -10 5 -10 10 0 6 5
10 10 10 6 0 10 -4 10 -10z m-1620 -10 c0 -5 -4 -10 -10 -10 -5 0 -10 5 -10
10 0 6 5 10 10 10 6 0 10 -4 10 -10z m40 0 c0 -5 -4 -10 -10 -10 -5 0 -10 5
-10 10 0 6 5 10 10 10 6 0 10 -4 10 -10z m30 0 c0 -5 -4 -10 -10 -10 -5 0 -10
5 -10 10 0 6 5 10 10 10 6 0 10 -4 10 -10z m40 0 c0 -5 -4 -10 -10 -10 -5 0
-10 5 -10 10 0 6 5 10 10 10 6 0 10 -4 10 -10z m30 0 c0 -5 -5 -10 -11 -10 -5
0 -7 5 -4 10 3 6 8 10 11 10 2 0 4 -4 4 -10z m2671 0 c5 0 9 -4 9 -10 0 -5
-11 -10 -25 -10 -16 0 -25 6 -25 16 0 11 5 14 16 10 9 -3 20 -6 25 -6z m119
-21 c0 -10 -4 -19 -10 -19 -5 0 -10 12 -10 26 0 14 4 23 10 19 6 -3 10 -15 10
-26z m60 6 c0 -14 -4 -25 -10 -25 -5 0 -10 11 -10 25 0 14 5 25 10 25 6 0 10
-11 10 -25z m30 -5 c0 -11 -4 -20 -10 -20 -5 0 -10 9 -10 20 0 11 5 20 10 20
6 0 10 -9 10 -20z m-2835 -10 c3 -5 -1 -10 -10 -10 -9 0 -13 5 -10 10 3 6 8
10 10 10 2 0 7 -4 10 -10z m525 -5 c0 -8 -4 -15 -9 -15 -13 0 -22 16 -14 24
11 11 23 6 23 -9z m40 0 c0 -8 -7 -15 -15 -15 -8 0 -15 7 -15 15 0 8 7 15 15
15 8 0 15 -7 15 -15z m50 0 c0 -8 -9 -15 -20 -15 -11 0 -20 7 -20 15 0 8 9 15
20 15 11 0 20 -7 20 -15z m1907 -1 c9 -9 9 -14 -2 -18 -21 -8 -45 3 -39 18 6
16 27 16 41 0z m253 6 c0 -5 -4 -10 -10 -10 -5 0 -10 5 -10 10 0 6 5 10 10 10
6 0 10 -4 10 -10z m-3020 -10 c0 -5 -4 -10 -10 -10 -5 0 -10 5 -10 10 0 6 5
10 10 10 6 0 10 -4 10 -10z m420 0 c0 -5 -4 -10 -9 -10 -6 0 -13 5 -16 10 -3
6 1 10 9 10 9 0 16 -4 16 -10z m1560 0 c0 -5 -4 -10 -10 -10 -5 0 -10 5 -10
10 0 6 5 10 10 10 6 0 10 -4 10 -10z m930 -5 c0 -12 -7 -14 -27 -11 -16 2 -35
5 -43 6 -11 1 -9 4 5 10 33 14 65 12 65 -5z m-1570 -10 c0 -8 -7 -15 -15 -15
-8 0 -15 7 -15 15 0 8 7 15 15 15 8 0 15 -7 15 -15z m80 0 c0 -18 -30 -20 -31
-2 0 10 -2 10 -6 0 -7 -18 -33 -16 -33 2 0 10 11 15 35 15 24 0 35 -5 35 -15z
m-570 -25 c0 -11 -7 -20 -15 -20 -15 0 -21 21 -8 33 12 13 23 7 23 -13z m1695
11 c3 -5 1 -12 -5 -16 -5 -3 -10 1 -10 9 0 18 6 21 15 7z m30 0 c3 -5 1 -12
-5 -16 -5 -3 -10 1 -10 9 0 18 6 21 15 7z m30 0 c3 -5 1 -12 -5 -16 -5 -3 -10
1 -10 9 0 18 6 21 15 7z m30 0 c3 -5 1 -12 -5 -16 -5 -3 -10 1 -10 9 0 18 6
21 15 7z m-1875 -5 c0 -3 -4 -8 -10 -11 -5 -3 -10 -1 -10 4 0 6 5 11 10 11 6
0 10 -2 10 -4z m660 -26 c0 -11 -7 -20 -15 -20 -8 0 -15 9 -15 20 0 11 7 20
15 20 8 0 15 -9 15 -20z m-100 0 c0 -5 -2 -10 -4 -10 -3 0 -8 5 -11 10 -3 6
-1 10 4 10 6 0 11 -4 11 -10z m1620 -10 c0 -5 -4 -10 -10 -10 -5 0 -10 5 -10
10 0 6 5 10 10 10 6 0 10 -4 10 -10z m30 1 c0 -6 -4 -13 -10 -16 -5 -3 -10 1
-10 9 0 9 5 16 10 16 6 0 10 -4 10 -9z m30 0 c0 -6 -4 -13 -10 -16 -5 -3 -10
1 -10 9 0 9 5 16 10 16 6 0 10 -4 10 -9z m25 0 c3 -5 1 -12 -5 -16 -5 -3 -10
1 -10 9 0 18 6 21 15 7z m30 0 c3 -5 1 -12 -5 -16 -5 -3 -10 1 -10 9 0 18 6
21 15 7z m-840 -11 c3 -5 1 -10 -4 -10 -6 0 -11 5 -11 10 0 6 2 10 4 10 3 0 8
-4 11 -10z"/>
<path d="M4080 1060 c-45 -13 -71 -34 -91 -72 -33 -64 -17 -137 39 -177 l30
-21 35 47 c37 50 41 69 9 40 -10 -10 -23 -17 -28 -17 -14 0 -45 68 -35 74 4 3
13 -6 19 -19 7 -14 16 -25 21 -25 11 0 99 69 124 98 22 24 17 37 -21 56 -39
19 -73 25 -102 16z m-80 -120 c0 -5 -5 -10 -11 -10 -5 0 -7 5 -4 10 3 6 8 10
11 10 2 0 4 -4 4 -10z"/>
<path d="M2205 1280 c-4 -6 -3 -16 3 -22 6 -6 12 -6 17 2 4 6 3 16 -3 22 -6 6
-12 6 -17 -2z"/>
<path d="M1852 985 l-42 -65 86 0 86 0 -18 28 c-42 64 -67 102 -68 102 0 0
-20 -30 -44 -65z"/>
<path d="M2500 980 l-41 -60 86 0 c48 0 85 3 83 8 -9 21 -74 112 -80 112 -4 0
-26 -27 -48 -60z"/>
<path d="M1810 872 c0 -15 44 -50 70 -56 30 -7 67 11 88 42 l14 22 -86 0 c-47
0 -86 -4 -86 -8z"/>
<path d="M2469 862 c33 -61 110 -63 149 -4 l14 22 -86 0 c-81 0 -86 -1 -77
-18z"/>
<path d="M2100 620 c0 -6 45 -10 114 -10 66 0 117 4 121 10 4 6 -37 10 -114
10 -74 0 -121 -4 -121 -10z"/>
<path d="M2050 573 c0 -5 77 -8 170 -8 94 0 170 3 170 8 0 4 -76 7 -170 7 -93
0 -170 -3 -170 -7z"/>
<path d="M1222 898 l3 -163 163 -3 162 -2 0 165 0 165 -165 0 -165 0 2 -162z
m118 130 c0 -4 -4 -10 -10 -13 -5 -3 -10 -19 -10 -36 0 -28 -2 -29 -45 -29
l-45 0 0 38 c0 21 3 42 7 46 9 9 103 3 103 -6z m185 2 c4 -6 -23 -10 -74 -10
-47 0 -81 4 -81 10 0 6 31 10 74 10 41 0 78 -4 81 -10z m-32 -27 c-24 -2 -62
-2 -85 0 -24 2 -5 4 42 4 47 0 66 -2 43 -4z m2 -23 c4 -6 -18 -10 -59 -10 -37
0 -66 4 -66 10 0 6 26 10 59 10 33 0 63 -4 66 -10z m-163 -52 c-7 -7 -12 -27
-12 -46 0 -33 0 -33 -42 -30 -42 3 -43 4 -46 40 -3 33 0 38 23 44 14 3 34 4
45 1 11 -3 23 -1 26 5 3 5 9 7 12 3 3 -3 0 -11 -6 -17z m161 -5 c-24 -2 -62
-2 -85 0 -24 2 -5 4 42 4 47 0 66 -2 43 -4z m0 -20 c-24 -2 -62 -2 -85 0 -24
2 -5 4 42 4 47 0 66 -2 43 -4z m0 -20 c-24 -2 -62 -2 -85 0 -24 2 -5 4 42 4
47 0 66 -2 43 -4z m-26 -20 c-20 -2 -52 -2 -70 0 -17 2 0 4 38 4 39 0 53 -2
32 -4z m-127 -35 c0 -4 -4 -10 -10 -13 -5 -3 -10 -20 -10 -36 0 -29 -1 -30
-42 -27 -37 3 -42 6 -45 32 -6 47 1 53 56 52 28 0 51 -4 51 -8z m182 -28 c-3
-24 -9 -30 -28 -30 -13 0 -24 -4 -24 -10 0 -5 -21 -10 -47 -10 l-48 0 0 40 0
40 76 0 76 0 -5 -30z"/>
<path d="M1250 992 c0 -18 5 -32 10 -32 6 0 8 11 4 28 -10 39 -14 40 -14 4z"/>
<path d="M1270 1011 c0 -18 18 -21 30 -6 10 13 9 15 -9 15 -11 0 -21 -4 -21
-9z"/>
<path d="M1285 970 c-3 -5 -1 -10 4 -10 6 0 11 5 11 10 0 6 -2 10 -4 10 -3 0
-8 -4 -11 -10z"/>
<path d="M1251 893 c-1 -29 2 -33 24 -33 14 0 25 4 25 9 0 5 -8 8 -17 7 -10 0
-20 9 -24 24 -6 23 -7 23 -8 -7z"/>
<path d="M1270 911 c0 -17 18 -21 24 -6 3 9 0 15 -9 15 -8 0 -15 -4 -15 -9z"/>
<path d="M1250 792 c0 -18 5 -32 10 -32 6 0 8 11 4 28 -10 39 -14 40 -14 4z"/>
<path d="M1272 809 c2 -6 8 -10 13 -10 5 0 11 4 13 10 2 6 -4 11 -13 11 -9 0
-15 -5 -13 -11z"/>
<path d="M1285 770 c-3 -5 -1 -10 4 -10 6 0 11 5 11 10 0 6 -2 10 -4 10 -3 0
-8 -4 -11 -10z"/>
<path d="M1428 813 c7 -3 16 -2 19 1 4 3 -2 6 -13 5 -11 0 -14 -3 -6 -6z"/>
<path d="M3130 1075 c0 -20 5 -25 27 -25 l26 0 -23 25 c-13 14 -25 25 -27 25
-2 0 -3 -11 -3 -25z"/>
<path d="M3558 1084 c-56 -30 -74 -112 -38 -171 38 -63 112 -80 171 -40 58 39
76 106 44 167 -29 55 -117 77 -177 44z m133 -43 c38 -39 39 -80 0 -123 -41
-46 -92 -45 -133 1 -25 28 -29 39 -24 70 12 79 101 108 157 52z"/>
<path d="M3595 1050 c-36 -14 -50 -41 -46 -92 3 -52 86 -76 132 -39 34 27 32
86 -5 117 -28 25 -47 28 -81 14z"/>
<path d="M3483 848 c-17 -38 -19 -49 -8 -44 8 3 22 9 30 12 10 4 18 -3 26 -22
l11 -29 20 40 c14 27 17 40 9 43 -6 2 -24 14 -39 27 l-27 22 -22 -49z"/>
<path d="M3712 870 c-12 -10 -27 -20 -34 -22 -7 -3 -3 -16 13 -37 l24 -32 8
26 c8 22 14 26 38 23 29 -5 29 2 -4 45 -17 21 -17 21 -45 -3z"/>
<path d="M790 1045 c0 -10 7 -15 18 -13 21 4 19 22 -2 26 -10 2 -16 -3 -16
-13z"/>
<path d="M787 985 c-5 -11 0 -15 19 -15 16 0 24 5 22 13 -7 18 -35 20 -41 2z"/>
<path d="M419 1043 c-14 -3 -15 -11 -1 -79 13 -67 17 -75 36 -72 23 3 23 11 5
106 -6 28 -13 51 -17 51 -4 -1 -14 -3 -23 -6z"/>
<path d="M300 960 c0 -79 0 -80 25 -80 25 0 25 1 25 80 0 79 0 80 -25 80 -25
0 -25 -1 -25 -80z"/>
<path d="M462 879 c-43 -9 -44 -11 -36 -54 6 -36 7 -37 43 -30 20 4 37 8 39
10 2 2 0 21 -5 42 -8 38 -9 39 -41 32z m23 -34 c0 -30 -39 -27 -43 3 -3 20 0
23 20 20 15 -2 23 -10 23 -23z"/>
<path d="M450 845 c0 -9 5 -15 11 -13 6 2 11 8 11 13 0 5 -5 11 -11 13 -6 2
-11 -4 -11 -13z"/>
<path d="M290 830 c0 -39 1 -40 34 -40 27 0 34 4 38 23 8 43 -1 57 -38 57 -33
0 -34 -1 -34 -40z m60 10 c0 -24 -26 -38 -42 -22 -16 16 -2 42 22 42 13 0 20
-7 20 -20z"/>
<path d="M312 839 c2 -6 8 -10 13 -10 5 0 11 4 13 10 2 6 -4 11 -13 11 -9 0
-15 -5 -13 -11z"/>
<path d="M190 959 c0 -78 1 -80 23 -77 20 3 22 9 25 81 3 77 3 77 -23 77 -25
0 -25 -1 -25 -81z m40 37 c0 -11 -19 -15 -25 -6 -3 5 1 10 9 10 9 0 16 -2 16
-4z"/>
<path d="M170 830 l0 -40 40 0 40 0 0 40 0 40 -40 0 -40 0 0 -40z m65 5 c0
-23 -34 -33 -45 -14 -13 20 1 40 24 37 13 -2 21 -10 21 -23z"/>
<path d="M200 835 c0 -9 5 -15 11 -13 6 2 11 8 11 13 0 5 -5 11 -11 13 -6 2
-11 -4 -11 -13z"/>
<path d="M3175 948 c-27 -15 -35 -28 -35 -60 0 -34 44 -71 74 -62 27 7 56 41
56 64 0 23 -29 57 -55 64 -11 3 -29 0 -40 -6z"/>
<path d="M727 914 c-9 -10 2 -24 19 -24 8 0 14 7 14 15 0 15 -21 21 -33 9z"/>
<path d="M731 856 c-17 -20 -10 -29 19 -24 19 3 19 5 8 21 -13 17 -15 17 -27
3z"/>
<path d="M854 909 c-10 -17 13 -36 27 -22 12 12 4 33 -11 33 -5 0 -12 -5 -16
-11z"/>
<path d="M857 853 c-14 -13 -7 -33 11 -33 26 0 34 11 21 27 -13 14 -22 16 -32
6z"/>
<path d="M1081 444 c0 -11 3 -14 6 -6 3 7 2 16 -1 19 -3 4 -6 -2 -5 -13z"/>
<path d="M2910 319 c0 -5 5 -7 10 -4 6 3 10 8 10 11 0 2 -4 4 -10 4 -5 0 -10
-5 -10 -11z"/>
<path d="M5055 1179 c-42 -57 -48 -79 -24 -79 6 0 7 6 3 13 -6 9 -4 9 7 1 46
-34 161 -106 164 -102 8 8 -49 65 -82 82 -40 20 -41 32 -8 76 23 31 24 35 8
52 -9 10 -18 18 -20 18 -1 0 -23 -27 -48 -61z"/>
<path d="M5132 1180 c-7 -12 -10 -26 -6 -32 4 -6 3 -8 -4 -4 -6 3 -13 2 -16
-3 -3 -5 3 -11 14 -14 11 -3 20 -1 20 4 0 4 6 6 14 3 8 -3 19 4 26 16 10 18 8
24 -7 36 -24 18 -26 17 -41 -6z"/>
<path d="M4967 1166 c-15 -22 -15 -25 4 -42 10 -9 17 -20 14 -22 -3 -3 -11 3
-19 13 -12 16 -16 17 -30 6 -25 -21 -19 -40 17 -56 28 -12 73 -33 180 -82 24
-12 23 -9 -11 25 -22 22 -57 47 -80 58 -41 19 -45 30 -28 75 4 9 -1 22 -12 32
-18 17 -20 16 -35 -7z"/>
<path d="M4682 1048 c-14 -14 -16 -38 -4 -38 12 0 32 23 32 37 0 16 -12 17
-28 1z"/>
<path d="M5005 745 c-16 -13 -24 -24 -17 -25 7 0 11 -3 9 -7 -3 -5 17 -6 45
-4 71 5 160 -8 151 -21 -4 -8 0 -9 12 -4 16 6 16 4 4 -13 -131 -181 -128 -176
-120 -212 22 -96 95 -185 220 -267 46 -31 115 -87 152 -124 l67 -68 236 0 236
0 0 235 0 234 -42 11 c-83 22 -114 36 -215 97 -57 33 -124 69 -150 79 -27 9
-75 28 -109 41 -33 12 -66 23 -73 23 -6 0 -23 7 -36 16 -27 17 -71 15 -67 -4
3 -14 -14 -16 -23 -2 -4 7 -12 7 -25 0 -21 -11 -63 -13 -73 -4 -11 11 -129 14
-148 3 -27 -14 -33 7 -7 25 12 9 18 16 13 16 -6 0 -23 -11 -40 -25z"/>
<path d="M4960 711 c0 -6 4 -13 10 -16 6 -3 7 1 4 9 -7 18 -14 21 -14 7z"/>
<path d="M4915 693 c-4 -14 -12 -20 -22 -16 -26 10 1 -30 39 -59 57 -42 63
-43 31 -2 -18 21 -34 53 -36 69 -4 27 -5 28 -12 8z"/>
</g>
</svg>
